<svg width="14" height="16" viewBox="0 0 14 16" fill="none" xmlns="http://www.w3.org/2000/svg">
<path fill-rule="evenodd" clip-rule="evenodd" d="M1 6.68565C1.0107 3.53488 3.57358 0.989362 6.72435 1.00003C9.87512 1.01077 12.4206 3.57365 12.41 6.72442V6.78903C12.3712 8.83713 11.2276 10.7302 9.82558 12.2097C9.02377 13.0423 8.12837 13.7795 7.15723 14.4064C6.89755 14.631 6.51238 14.631 6.2527 14.4064C4.80497 13.4641 3.53433 12.2744 2.49893 10.8917C1.57609 9.68596 1.05213 8.2225 1 6.70503V6.68565Z" stroke="white" stroke-width="1.5" stroke-linecap="round" stroke-linejoin="round"/>
<path opacity="0.4" d="M6.7049 8.62391C7.71471 8.62391 8.53333 7.80529 8.53333 6.79547C8.53333 5.78566 7.71471 4.96704 6.7049 4.96704C5.69508 4.96704 4.87646 5.78566 4.87646 6.79547C4.87646 7.80529 5.69508 8.62391 6.7049 8.62391Z" stroke="white" stroke-width="1.5" stroke-linecap="round" stroke-linejoin="round"/>
</svg>
